<svg width="32" height="33" viewBox="0 0 32 33" fill="none" xmlns="http://www.w3.org/2000/svg">
<path d="M16 0.5C7.168 0.5 0 7.668 0 16.5C0 25.332 7.168 32.5 16 32.5C24.832 32.5 32 25.332 32 16.5C32 7.668 24.832 0.5 16 0.5ZM16 29.3C8.944 29.3 3.2 23.556 3.2 16.5C3.2 9.444 8.944 3.7 16 3.7C23.056 3.7 28.8 9.444 28.8 16.5C28.8 23.556 23.056 29.3 16 29.3ZM7.2 25.3L19.216 19.716L24.8 7.7L12.784 13.284L7.2 25.3ZM16 14.74C16.976 14.74 17.76 15.524 17.76 16.5C17.76 17.476 16.976 18.26 16 18.26C15.024 18.26 14.24 17.476 14.24 16.5C14.24 15.524 15.024 14.74 16 14.74Z" fill="white"/>
</svg>
