<svg width="20" height="21" viewBox="0 0 20 21" fill="none" xmlns="http://www.w3.org/2000/svg">
<path d="M10.1 17.4482L10 17.5572L9.89 17.4482C5.14 12.7507 2 9.64441 2 6.49455C2 4.31471 3.5 2.67984 5.5 2.67984C7.04 2.67984 8.54 3.76975 9.07 5.25204H10.93C11.46 3.76975 12.96 2.67984 14.5 2.67984C16.5 2.67984 18 4.31471 18 6.49455C18 9.64441 14.86 12.7507 10.1 17.4482ZM14.5 0.5C12.76 0.5 11.09 1.38283 10 2.76703C8.91 1.38283 7.24 0.5 5.5 0.5C2.42 0.5 0 3.1267 0 6.49455C0 10.6035 3.4 13.9714 8.55 19.0613L10 20.5L11.45 19.0613C16.6 13.9714 20 10.6035 20 6.49455C20 3.1267 17.58 0.5 14.5 0.5Z" fill="black"/>
</svg>
