<svg width="32" height="33" viewBox="0 0 32 33" fill="none" xmlns="http://www.w3.org/2000/svg">
<path d="M16 4.3C18.32 4.3 20.2 6.18 20.2 8.5C20.2 10.82 18.32 12.7 16 12.7C13.68 12.7 11.8 10.82 11.8 8.5C11.8 6.18 13.68 4.3 16 4.3ZM16 22.3C21.94 22.3 28.2 25.22 28.2 26.5V28.7H3.8V26.5C3.8 25.22 10.06 22.3 16 22.3ZM16 0.5C11.58 0.5 8 4.08 8 8.5C8 12.92 11.58 16.5 16 16.5C20.42 16.5 24 12.92 24 8.5C24 4.08 20.42 0.5 16 0.5ZM16 18.5C10.66 18.5 0 21.18 0 26.5V32.5H32V26.5C32 21.18 21.34 18.5 16 18.5Z" fill="white"/>
</svg>
